<svg width="170" height="90" viewBox="0 0 170 90" fill="none" xmlns="http://www.w3.org/2000/svg">
<rect x="0.5" y="0.5" width="169" height="89" rx="3.5" stroke="#AFB1B8"/>
<path d="M81.9769 21.9345H82.1135C82.3665 21.9345 82.6397 21.9599 82.9104 21.9828C84.103 22.067 85.2873 22.2455 86.452 22.5168V19.6535C85.2527 19.3526 84.0296 19.1578 82.7965 19.0712C82.3285 19.0356 81.8302 19.0127 81.3192 19H80.8917C78.4168 19.0093 75.9526 19.3271 73.5554 19.946C70.8252 20.6269 68.2046 21.6928 65.7715 23.1119V51.5086C68.1142 50.2357 70.607 49.2643 73.1912 48.6173C75.2315 48.0967 77.3174 47.7765 79.4193 47.6612H79.5028C79.8545 47.6434 80.2061 47.6332 80.5678 47.6306V44.7216C77.8366 44.7567 75.1192 45.1178 72.4727 45.7972C71.4937 46.0515 70.5476 46.3261 69.6597 46.6313L68.6478 46.9746V24.8334L69.0804 24.6249C72.3816 23.0595 75.9521 22.1486 79.5964 21.9421C79.6267 21.9399 79.6572 21.9399 79.6875 21.9421C80.0897 21.9218 80.4945 21.9116 80.8917 21.9116H81.3268H81.347C81.557 21.9167 81.7669 21.9218 81.9769 21.9345Z" fill="#AFB1B8"/>
<path d="M89.1108 24.9326C88.4455 24.9326 87.7877 24.9097 87.1528 24.8614C86.3939 24.8054 85.6147 24.7139 84.876 24.5893C84.4257 24.513 83.983 24.4215 83.553 24.3223V52.3935C85.3737 52.8443 87.2433 53.0647 89.1184 53.0496C91.5931 53.0395 94.0571 52.7227 96.4546 52.1061C99.1853 51.4243 101.807 50.3585 104.241 48.9402V21.0496C101.899 22.3218 99.4068 23.294 96.8239 23.9434C94.3031 24.5908 91.7125 24.9231 89.1108 24.9326ZM100.335 25.4183L101.347 25.0775V47.2263L100.914 47.4348C99.2552 48.2243 97.5223 48.8469 95.7412 49.2937C93.5781 49.8533 91.3544 50.1412 89.1209 50.1506C88.4531 50.1506 87.7903 50.1227 87.1477 50.0667L86.4546 50.0057V47.3178V27.2288L87.2616 27.2822C87.8485 27.3204 88.4556 27.3382 89.1158 27.3382C91.9514 27.3281 94.7749 26.966 97.5221 26.26C98.4657 26.0108 99.4042 25.7311 100.335 25.4183Z" fill="#AFB1B8"/>
<path d="M67.7373 61.2124C67.5918 61.0615 67.4164 60.943 67.2225 60.8646C67.0286 60.7862 66.8204 60.7496 66.6115 60.7572C66.3889 60.7542 66.1679 60.7957 65.9614 60.8793C65.772 60.9547 65.5999 61.068 65.4554 61.2124C65.3126 61.3572 65.2014 61.5304 65.1291 61.721C65.0498 61.9207 65.0103 62.1341 65.0127 62.3491V66.1431C65.0037 66.4104 65.0547 66.6764 65.162 66.9212C65.2516 67.1156 65.3808 67.2889 65.5415 67.4298C65.6931 67.5575 65.8711 67.6495 66.0626 67.6994C66.2471 67.7512 66.4377 67.7777 66.6292 67.7782C66.8405 67.7803 67.0497 67.7351 67.2414 67.646C67.4311 67.563 67.6029 67.4438 67.7474 67.295C67.8883 67.1476 68.0006 66.9752 68.0788 66.7864C68.1599 66.5951 68.2012 66.3892 68.2002 66.1812V65.7566H67.2085V66.0948C67.2115 66.2103 67.1917 66.3252 67.1504 66.433C67.1181 66.5137 67.0689 66.5866 67.0062 66.6466C66.9447 66.6962 66.8743 66.7334 66.7987 66.7559C66.7318 66.7782 66.6618 66.7902 66.5913 66.7915C66.5028 66.8018 66.4131 66.7885 66.3313 66.7527C66.2496 66.717 66.1787 66.6602 66.1258 66.5881C66.0323 66.4356 65.9865 66.2585 65.9943 66.0795V62.5423C65.9881 62.3462 66.0298 62.1515 66.1157 61.9753C66.1672 61.8952 66.24 61.8313 66.3259 61.7908C66.4118 61.7503 66.5072 61.7349 66.6014 61.7464C66.6869 61.7434 66.7718 61.7612 66.8489 61.7984C66.926 61.8356 66.993 61.8911 67.0441 61.96C67.1551 62.1057 67.2131 62.2852 67.2085 62.4686V62.7966H68.1901V62.4101C68.1921 62.1831 68.1509 61.9578 68.0686 61.7464C67.9954 61.5476 67.8826 61.3659 67.7373 61.2124Z" fill="#AFB1B8"/>
<path d="M73.6289 61.1691C73.3127 60.9021 72.9136 60.7546 72.5007 60.7521C72.2987 60.7529 72.0984 60.7891 71.9087 60.8589C71.7161 60.9279 71.5384 61.0332 71.3851 61.1691C71.2208 61.3168 71.0897 61.498 71.0005 61.7006C70.9006 61.9323 70.8515 62.183 70.8563 62.4355V66.0744C70.8495 66.3304 70.8987 66.5847 71.0005 66.8195C71.0903 67.0151 71.2215 67.1887 71.3851 67.328C71.5367 67.4688 71.7147 67.5777 71.9087 67.6485C72.0984 67.7183 72.2987 67.7544 72.5007 67.7553C72.7027 67.7549 72.9031 67.7187 73.0926 67.6485C73.29 67.5767 73.4719 67.468 73.6289 67.328C73.7871 67.1861 73.9145 67.013 74.0033 66.8195C74.1051 66.5847 74.1544 66.3304 74.1475 66.0744V62.4355C74.1524 62.183 74.1032 61.9323 74.0033 61.7006C73.9151 61.5001 73.7878 61.3194 73.6289 61.1691ZM73.166 66.0744C73.1743 66.1714 73.1609 66.269 73.1268 66.3601C73.0926 66.4512 73.0386 66.5334 72.9687 66.6008C72.8377 66.7106 72.6725 66.7708 72.5019 66.7708C72.3313 66.7708 72.1662 66.7106 72.0352 66.6008C71.9652 66.5334 71.9112 66.4512 71.8771 66.3601C71.8429 66.269 71.8295 66.1714 71.8379 66.0744V62.4355C71.8295 62.3385 71.8429 62.2409 71.8771 62.1498C71.9112 62.0587 71.9652 61.9764 72.0352 61.9091C72.1662 61.7993 72.3313 61.7391 72.5019 61.7391C72.6725 61.7391 72.8377 61.7993 72.9687 61.9091C73.0386 61.9764 73.0926 62.0587 73.1268 62.1498C73.1609 62.2409 73.1743 62.3385 73.166 62.4355V66.0744Z" fill="#AFB1B8"/>
<path d="M81.3673 67.6994V60.8107H80.4136L79.1614 64.4572H79.1437L77.8813 60.8107H76.9377V67.6994H77.9218V63.5087H77.9395L78.9033 66.4712H79.3941L80.3655 63.5087H80.3832V67.6994H81.3673Z" fill="#AFB1B8"/>
<path d="M86.9579 61.2937C86.8064 61.1237 86.6151 60.9943 86.4014 60.9173C86.1711 60.8424 85.93 60.8063 85.688 60.8105H84.2258V67.6993H85.2074V65.0089H85.7133C86.0196 65.0228 86.3243 64.958 86.5987 64.8207C86.8219 64.6968 87.0079 64.515 87.1375 64.2943C87.2511 64.1111 87.3276 63.9071 87.3627 63.6942C87.4013 63.435 87.4191 63.173 87.4158 62.911C87.4253 62.5802 87.393 62.2495 87.3197 61.9269C87.2542 61.6885 87.1298 61.4706 86.9579 61.2937ZM86.452 63.3941C86.4477 63.5188 86.4167 63.6412 86.3609 63.7527C86.3048 63.8586 86.2161 63.9434 86.1079 63.9942C85.9625 64.0593 85.8039 64.0889 85.645 64.0807H85.1972V61.7387H85.7032C85.8555 61.7312 86.0074 61.7609 86.1459 61.8251C86.2474 61.8834 86.328 61.9724 86.3761 62.0794C86.4297 62.2004 86.459 62.331 86.4621 62.4634C86.4621 62.6084 86.4621 62.7609 86.4621 62.9211C86.4621 63.0813 86.4722 63.2466 86.4621 63.3941H86.452Z" fill="#AFB1B8"/>
<path d="M91.6077 60.8107H90.8032L89.2854 67.6994H90.2669L90.5553 66.2194H91.8935L92.1819 67.6994H93.1635L91.6077 60.8107ZM90.702 65.2811L91.1852 62.784H91.2029L91.6836 65.2811H90.702Z" fill="#AFB1B8"/>
<path d="M97.9496 64.9607H97.9319L96.4494 60.8107H95.5059V67.6994H96.4874V63.557H96.5076L98.0078 67.6994H98.9311V60.8107H97.9496V64.9607Z" fill="#AFB1B8"/>
<path d="M103.948 60.8107L103.158 63.5494H103.138L102.349 60.8107H101.309L102.657 64.7878V67.6994H103.639V64.7878L104.987 60.8107H103.948Z" fill="#AFB1B8"/>
<path d="M65 69.6445H65.4731V70.9719H65.7943V69.6445H66.2649V69.3724H65V69.6445Z" fill="#AFB1B8"/>
<path d="M68.9767 69.3724L68.3569 70.9719H68.6984L68.83 70.6083H69.4675L69.6041 70.9719H69.9532L69.3182 69.3724H68.9767ZM68.9261 70.3387L69.1437 69.7462L69.3612 70.3387H68.9261Z" fill="#AFB1B8"/>
<path d="M72.9079 70.3821H73.2773V70.5881C73.1694 70.6746 73.0358 70.722 72.8978 70.7229C72.8333 70.7265 72.7689 70.7145 72.7099 70.688C72.6509 70.6614 72.5991 70.6211 72.5588 70.5703C72.474 70.4485 72.4322 70.3017 72.4399 70.1533C72.4399 69.7973 72.5942 69.6193 72.9003 69.6193C72.9809 69.6112 73.0617 69.6325 73.128 69.6791C73.1944 69.7257 73.2419 69.7947 73.2621 69.8735L73.5783 69.8125C73.51 69.4997 73.2849 69.3421 72.9003 69.3421C72.6947 69.3366 72.4947 69.4103 72.3413 69.5481C72.2607 69.6276 72.1983 69.7239 72.1586 69.8302C72.1188 69.9365 72.1026 70.0502 72.1111 70.1634C72.1017 70.3823 72.1749 70.5966 72.316 70.7636C72.3943 70.8444 72.4892 70.9071 72.594 70.9475C72.6988 70.9879 72.8111 71.0049 72.9231 70.9975C73.1734 71.0045 73.4165 70.9133 73.6011 70.7432V70.1126H72.9079V70.3821Z" fill="#AFB1B8"/>
<path d="M76.9227 69.3724H76.5989V70.9719H77.7195V70.6998H76.9227V69.3724Z" fill="#AFB1B8"/>
<path d="M80.3175 69.3724H79.9937V70.9719H80.3175V69.3724Z" fill="#AFB1B8"/>
<path d="M83.6364 70.4405L82.9812 69.3724H82.6675V70.9719H82.9685V69.9268L83.6111 70.9719H83.9323V69.3724H83.6364V70.4405Z" fill="#AFB1B8"/>
<path d="M86.6368 70.2675H87.4337V69.9954H86.6368V69.6445H87.4944V69.3724H86.313V70.9719H87.5273V70.6998H86.6368V70.2675Z" fill="#AFB1B8"/>
<path d="M93.9121 70.0031H93.2822V69.3724H92.9609V70.9719H93.2822V70.2726H93.9121V70.9719H94.2334V69.3724H93.9121V70.0031Z" fill="#AFB1B8"/>
<path d="M96.9302 70.2675H97.7296V69.9954H96.9302V69.6445H97.7903V69.3724H96.6089V70.9719H97.8206V70.6998H96.9302V70.2675Z" fill="#AFB1B8"/>
<path d="M101.023 70.2676C101.302 70.2244 101.443 70.0769 101.443 69.8226C101.451 69.7546 101.441 69.6856 101.413 69.623C101.386 69.5603 101.342 69.5063 101.286 69.4666C101.141 69.3938 100.98 69.3614 100.818 69.3725H100.14V70.972H100.462V70.3032H100.525C100.593 70.299 100.662 70.3112 100.725 70.3388C100.772 70.3678 100.811 70.4079 100.839 70.4558L101.188 70.9644H101.572L101.377 70.6516C101.291 70.4972 101.17 70.3656 101.023 70.2676ZM100.699 70.0464H100.462V69.6446H100.715C100.825 69.6357 100.936 69.6486 101.041 69.6827C101.064 69.7034 101.083 69.7291 101.095 69.7579C101.107 69.7867 101.113 69.8179 101.111 69.8492C101.11 69.8804 101.101 69.911 101.087 69.9385C101.072 69.966 101.051 69.9899 101.026 70.0082C100.92 70.0406 100.81 70.0535 100.699 70.0464Z" fill="#AFB1B8"/>
<path d="M104.109 70.2675H104.906V69.9954H104.109V69.6445H104.97V69.3724H103.786V70.9719H105V70.6998H104.109V70.2675Z" fill="#AFB1B8"/>
</svg>
